<svg xmlns="http://www.w3.org/2000/svg" viewBox="0 0 2500 300"><defs><style>.minerva-base-style{}</style></defs><g transform="translate(0 0) scale(1.4285714285714286) translate(0 0)" style="fill: #656767;"><title>minerva</title><path d="M105,0A105,105,0,1,0,210,105,105.1,105.1,0,0,0,105,0Zm0,207.1A102.1,102.1,0,1,1,207.1,105,102.2,102.2,0,0,1,105,207.1Z"/><path class="minerva-base-style" d="M166.6,97c-1.4-3.1-.5-5.1-.9-7.3s-2.7-7-4.3-10.8c-.7-1.7,3.8-1.3.4-7.6,0-.2,4.7-2,0-5.5a26.4,26.4,0,0,1-6-6.7,1,1,0,0,1,0-1.3c2.7-2.4,2.8-5.8-.1-7.5s-4.5,0-6.7,1.4c-.7.5-1.1.8-1.9.5L145.3,51c2.7-2.6,3.3-5.2,3.1-5.6s-4.6-1.3-10.2,1l-.4-.3c2.3-3.9,1-6.7.9-6.9h-.1A81,81,0,0,1,151,25.9h.1c.2-.3.3-.6-.2-.9l-1-.6A92.4,92.4,0,0,0,12.7,105c0,29.5,15,57.9,39.4,75.6a13.5,13.5,0,0,0,2.8,1.6A1.1,1.1,0,0,0,56,182l.3-.5a1,1,0,0,0,.3-.8c0-.7-.9-1.3-2.1-3a27.7,27.7,0,0,1-4.7-15.1,22.1,22.1,0,0,1,4.5-13.7c3.7,3.9,11.7,10.9,11.5,17.4s-6.9,6.8-5.4,12.2c.9,3.4,3.4,2,3.9,4.6.7,4.4,6.7,7.3,9.3,6.9.7-.1,1.2.4,2.4,1.7s6.2,1.6,8.2,1.2,4.1,1.4,8,.9,6.1-.9,8.2-.9,22.5-.3,36,1.8c2.4.4,3.1-.7,2.1-2.5-4.9-8.6-5.6-15.8-2.8-25,5,.4,12.2,1.7,21.6-4a11,11,0,0,0,5.1-9.5c-.1-2.1-1-4.7-.5-6.7s1.3-2.7,2.1-3.2c3.6-2.6,1-4.6.4-4.8a3.4,3.4,0,0,0,1.1-4.6c-.7-.7-2.7-6.2-.4-7.3s5.3-1.8,8.1-3.1a4.5,4.5,0,0,0,2.4-6C174.2,114.4,166.8,97.4,166.6,97ZM64.7,179.1c-.7.2-2.9.3-2.4-2.7s2.3-2.6,3.3-1.6S64.9,177.6,64.7,179.1Zm87-125.9c1.2-.8,2.5-1.1,3.3-.4,2.6,2.6-2.9,4.1-1.8,6.1a30.7,30.7,0,0,0,7.5,8.4c1.2,1,1.4,3.1-3.3,4.1s-23.6,5.9-33.6,16.5c-12.5,13.2-20.4,30.3-21.5,28s-3.6-2.8-3.2-3.5C117,81.6,145.1,57.3,151.7,53.2Zm8.2,21.7c-1,2.9-9.1,5.5-8.7,3.5s0-2.2.6-2.3,3.5-1.1,7.5-2.1C159.7,73.9,160.2,74.1,159.9,74.9Zm-20.6,5.3c-.2-1.2,8.5-4.1,8.8-3.3s-1.8,6-4.7,7-4.7.9-4.6.4A11,11,0,0,0,139.3,80.2ZM119,125.8c-4,2.5-6.2-2.2-6.8-3.1a3.7,3.7,0,0,1-.5-3.1c.3-1.4.5-3.3-.4-9.3-.4-2.7,5-9.2,6.3-10.4s3.1.6,3.2,2.6c.3,3.6-1.8,5.6-3.9,7.2s-3.1,4.4-2.6,5.1a1.5,1.5,0,0,0,1.9-.9c1.5-3.3,6-4.9,6.7-6.7s.3-4.4.2-5.6.9-1.2,1.6-1.1,1.4,1.4,1.8,2.7c2.9,7.5-4.3,12-5.5,13.8S122.1,123.9,119,125.8Zm6.1-29.1c-2.2,1.5-5.3-.5-4.7-1.4a43.7,43.7,0,0,1,11.5-11c3.4-2.1,3.8-2.3,4-1.1a10.6,10.6,0,0,1-2.6,7.5c-2.3,2.5-4.6,2.3-5.8,2.6S126.7,95.6,125.1,96.7Zm-19.3,25.6c-1-.2-1.4-2.1-1.2-2.9s3.1-5.2,4-6.4a.5.5,0,0,1,.8.3C110,117.4,109.4,123.1,105.8,122.3ZM138,48.2a17.7,17.7,0,0,1,7.5-1.6c.8.1-1.9,4.8-6.6,6.8s-8.5,2.5-8.9,2.3S134.1,49.9,138,48.2ZM54.7,126.5c-1.5-1.7-2.8-2.6-2.9-2.5a22.4,22.4,0,0,0-3.6,8.9A65.4,65.4,0,0,1,40.7,105C39.3,69.6,69,41.1,105.2,41.2a56.8,56.8,0,0,1,22.4,4.6,31.3,31.3,0,0,0-3.7,6.6c0-1.9-.5-3.4-.4-4.6s-5.1.9-9.7,8.3a19.9,19.9,0,0,0-2.2,5.3c-.1-2.8-.7-4.9-.9-4.9a16.1,16.1,0,0,0-8.5,8.8,22.4,22.4,0,0,0-1.1,3.4c-.2-1.9-.7-3.2-.9-3.2s-5.9,2.3-8.6,8.9A15.4,15.4,0,0,0,90.5,79c-.5-2.3-1.4-3.7-1.7-3.4-1.9,2.4-5.7,3.5-7.6,9.6a13.2,13.2,0,0,0-.7,4.2c-.8-2-2-3.2-2.3-3.2s-6.1,5.5-7,10.9a15.8,15.8,0,0,0,.2,5.8c-1.1-1.8-2.5-3-3.1-4.8-.9.5-5.7,5-5.8,10.7a19.7,19.7,0,0,0,.7,6.1c-1.6-2.9-3.8-4.2-4.1-4.1s-4,4.1-4.8,11.1A11.8,11.8,0,0,0,54.7,126.5Zm74.1-79.7c2.8-3.4,7.6-6.1,8.2-5.8s-.8,5.6-3.9,8.6-8.1,6.2-8.6,6.1S126.2,49.8,128.8,46.8Zm-9.3,13a21,21,0,0,0-5.6,6.4c-.5.9-1.9-5,1.7-10.6,2.2-3.5,6.6-6.6,6.5-6.2S124.2,56,119.5,59.8Zm-10.1,7.5c-3.4,5.1-3.6,3.3-7.3,8.3-.2.2-.2-6.5,1.1-9.4,2.1-4.7,5.7-7.4,6.2-7.5S111.3,64.5,109.4,67.3ZM98.3,77.4c-1.7,3-3.3,2.3-6.2,6.7-.3.4-1.1-3.6.7-9.1a12.6,12.6,0,0,1,5.9-6.9C99.3,68,100.4,73.8,98.3,77.4ZM88,88.1c-1.8,3.9-2.9,4-5,6.4-.3.4-1.8-3.7-.4-8.8s4-5.6,5.3-7S89.9,84,88,88.1Zm-8.4,6.6a10.3,10.3,0,0,1-.4,3c-1.3,4.3-3.9,6.2-5.3,8.1a15.7,15.7,0,0,1-1.6-5.8,15.2,15.2,0,0,1,5.2-11.2C78.3,88.8,79.6,92,79.6,94.7Zm-8.5,12.8A14.9,14.9,0,0,1,66,118.3a17.7,17.7,0,0,1-2.2-7.6c-.2-6.3,2.4-8.5,3.6-9.7C67.9,102.8,71.1,104.2,71.1,107.5ZM59,113.8c1.8.9,3.9,3.4,4.1,8.2s-3.2,8.7-4.6,9.4c-.9-3.7-2.6-4.4-2.6-8A18,18,0,0,1,59,113.8Zm7.3,12.5c4.6-2,9.6-1.7,9.8-1.5s-1.5,5.9-5.9,8.2-9.5,2.7-10,2.1S61.7,128.3,66.3,126.3Zm-.4-3.4c.3-1.5,3-6.5,7.1-8.3h0a18.4,18.4,0,0,1,9.4-1.5c.5.2-1.7,5.6-5.8,7.6S70.1,121.6,65.9,122.9Zm6.9-11.8c.2-.4,3.5-6.4,7.4-8.2a17.5,17.5,0,0,1,8.9-1.4c.3.1-1.8,5.4-6.2,7.6S72.6,111.6,72.8,111.1Zm8.9-11.9c-.3-.2,4.4-6.4,8.4-8.3a15.6,15.6,0,0,1,8.4-1c.3.3-1.9,5.5-6.5,7.5A24.2,24.2,0,0,1,81.7,99.2ZM92.4,87.4c-.2-.2,3.4-6.3,7.4-7.9s7.7-.1,8.9,0-1.3,4.5-6.6,6.4S93.1,87.7,92.4,87.4Zm12-11.4c.1-.3,4.1-5.9,8.1-7.3a16.4,16.4,0,0,1,9.2-.2c.5.2-2.8,5-7.7,6.5S104.3,76.3,104.4,76Zm12.1-9.9c-.5-.3,4.3-5.7,8.2-7.2a18,18,0,0,1,8.3-1c.3.2-2.5,4.9-7.1,6.7S117.1,66.5,116.5,66.1ZM50.2,175.3C28.6,158.1,15.6,132.1,15.6,105A89.3,89.3,0,0,1,146.4,25.8a.4.4,0,0,1,.1.7,97.3,97.3,0,0,0-10.2,11.4,73.1,73.1,0,0,0-31.3-7A74.3,74.3,0,0,0,30.9,105a72.1,72.1,0,0,0,17.9,48.2,23.1,23.1,0,0,0-1.9,9.4A25.6,25.6,0,0,0,50.2,175.3Zm.2-24.8h-.1A69.2,69.2,0,0,1,33.9,105,71.2,71.2,0,0,1,105,33.9a70.1,70.1,0,0,1,29.6,6.4,22.6,22.6,0,0,0-4.1,2.6A63.1,63.1,0,0,0,105,37.8,67.3,67.3,0,0,0,37.8,105c0,16.1,5,30.2,14.8,42C52.1,147.9,51.3,149.1,50.4,150.5Zm3.5-5.6c-1.3-1.2-4.1-4.3-4.4-8.3V136c0-4.3,1.9-8.6,2.4-9s5.3,3.3,5.4,8.7A14.4,14.4,0,0,1,53.9,144.9Zm8-7.2c3.9-1.8,9.6-1.4,9.3-1.1s-1.8,5.8-6.2,8a12.1,12.1,0,0,1-8.7,1.3C58.6,143.3,58.1,139.5,61.9,137.7Zm5.2,46.5c-.6-2.7-.4-6.3.5-7.3s4.9-1.2,5-.1-1.1,5.4.3,10.2C72.6,187.7,68.3,187.4,67.1,184.2Zm.3-11.1c-.3-2,1.6-3.9,1.6-8.2s-6.6-12.6-11.1-17.3a19.5,19.5,0,0,0,7.9-1.9c6.6-3.1,7.9-10.1,8.1-10.4a11,11,0,0,0-3.8-.4l.8-.4c6.4-3.5,8.1-11,7.8-11.1a17,17,0,0,0-4-.3l2-.7c6.8-2.7,8.7-10.3,8.5-10.6a16.1,16.1,0,0,0-3.5-.4l1.9-.8c6.2-3.1,8.4-10.1,8.1-10.3a10.5,10.5,0,0,0-3.3-.4,23.7,23.7,0,0,0,4.5-1.5c6.7-2.9,8.9-9.3,8.6-9.6a10.9,10.9,0,0,0-3-.5,34.5,34.5,0,0,0,4.4-1.3c6.6-2.2,9.2-8.5,8.8-8.6l-3.7-.8a24.5,24.5,0,0,0,6.6-1.3c7.1-2.4,9.6-6.7,9.8-8.6a6,6,0,0,0-2.3-.8,29.3,29.3,0,0,0,4.7-1.2c6.6-2.7,9.4-9.3,9.6-9.8a29.3,29.3,0,0,0,3.9-1.6l1.9-.9,1.6,1.1c1,.6,1.4.8.9,1.2C122,75,105,99.5,97.6,111.3c-.2.4-.6.3-1.3.3-7.9-.6-12.4,8.9-8.9,17.8-.4,1.8-4.2,5.3-4.5,5.5s-1,1.4.3,1.3,4.2-3.2,5.4-4.5c.4.6,2.2,2,1.3,2.8A63.6,63.6,0,0,1,76,145c-2.6,1.2,4.2,2.1,15.7-8.3.7-.6,1.5,2.4,2.5,3.7-2,6.5,2.9,19.1,2.1,23a2.8,2.8,0,0,1-2.8,2.7c-11.4.3-12.5-.3-18.3,1.4-2.7.8-2,2.6-.1,2.1s4.6-1.5,16.9-.7c3.1.1,6.5-.6,6.5-5.7s-3.6-18.4-2.4-20.3a6.9,6.9,0,0,0,3.5,1.4c-.2,4.5,7,19,3.8,27-1.2,3-6.4,2.7-15.4,1.8C72.7,171.6,67.7,174.9,67.4,173.1Zm35.1,9.9c-5.9,2-8.3-4.9-7.3-6.4s4.4,1,7.3-.9S106,181.8,102.5,183Zm-27,4.3c-.8-3.7-1.1-10,.4-11.5s4.9-.9,4.8.2c-.3,4.3-2.1,9.2,1.2,14.1C83.2,192,76.7,192.3,75.5,187.3Zm11.4,4.2c-1.6-.4-6-7.4-2.4-15.8.3-.8,5.8-.3,6.8,0s-.8,6.8,6.8,9.8C98.8,185.8,98,194.3,86.9,191.5Zm47.2-23.3c-2.5,8.8-3.8,12.3,0,21.9.5,1.3.9,2.3-.2,2.1-7.7-1.4-9.4-2.6-33.7-.6-1.7.2.6-3.4.3-5.8,2.2-.3,5.8-1.3,6.5-4.9s-2.1-7.6-1.8-8.2c3.5-6.7-.2-14.1-3.1-26.6-.3-1.2.4-1.7.9-1.1,15.6,16.9,25.5,20.2,30.9,21.8C134.4,167,134.3,167.6,134.1,168.2ZM174,122.1c-3.3,2.9-8.3,3.1-10.3,4.9s-1.5,2.5-.4,5.2,1.1,1.7-1.1,2.3-4.1,5.8-8.8,4.9c-1.8-.3-.5.8.2.9,2.6.3,3.7-.5,4.6-1.4s2.2-2.4,3.6-2.9,2.9-.5,3,.6-1.9,2.1-2.7,2.5c1,.5,3.9,1.9,1.4,3.6s-4.6-.5-4.9-.7-1.7-.2-1.3.3,5.2,1.3,4.5,2.2c-3.5,4.7-.6,7.5-1.7,12.3s-7.7,7.5-12.8,8.4c-17.4,3.1-34.3-11.6-44.2-22.8.9-2.1.8-4.8-.1-3.8s-.7,2.4-2.8,2.9c-3.9,1-5.7-5.9-6.9-7.1-4.8-4.7-6.7-11.4-3.9-17.3s9-4.7,11.4-1.1,1.7,7,3.4,8.3,4.8.2,5.4,0,1.7,4.3,8,4.1,5.9-10.7,6.9-11.6c8.6-8.4,4.2-15.9,2.6-17.6s1-3.6,1.5-3.7a13,13,0,0,0,9.4-7.7s8.4-.2,11.4-6.2c.8-1.6,3.3,1.5,8.9-2.9a.8.8,0,0,1,1.4.3c3.7,8.9,5.2,11.3,4.9,15.8s8.7,21.5,9.4,23.1S174.8,121.3,174,122.1Z"/><path class="minerva-base-style" d="M153.8,90c-4.9.2-10.6,6.2-12.4,7s-1.3,1.5-.2,1.1,5.9-4.7,10.7-6.4,3.6,1.8,5,1.6S156.6,89.9,153.8,90Z"/><path class="minerva-base-style" d="M154.9,94.8c-.4.1.4,2.2-1.7,2.3-4.6.3-8.3,4.7-11.1,6a12.9,12.9,0,0,1-3.8,1.4.3.3,0,0,0,.1.6c11.7,1.6,16.2,1.1,16.3.7s-.6-1.2-.4-1.7a11.3,11.3,0,0,0,.1-5.5c-.2-.8,1.8-.3,1.8-1.3S155.6,94.7,154.9,94.8Zm-1.8,9.3c-.2.9-5.5.5-8.3.2-.7,0-1.8-.1.3-1.4s4.1-2.8,7.2-3.4a.8.8,0,0,1,.8.6A10.6,10.6,0,0,1,153.1,104.1Z"/><path class="minerva-base-style" d="M168.4,120.8c-.9,0-4.5,1.6-5.9,2.5s-4.4,2.7-4.2-.8c.1-1.3.9-4.4.9-5.3s-1-.7-1.1,0a36.9,36.9,0,0,1-.7,5.3c-.4,1.8,1.2,4,3.6,2.7s4.8-2.9,7.3-3.4C168.9,121.7,169,120.8,168.4,120.8Z"/><path class="minerva-base-style" d="M100.5,133.6c-.7-.3-.5,1.2-1.4,1s-.2-1.3-1.8-3-2.8-1.2-4.3-3.6-.3-12,3.1-10.8,1.6,5,1,8,2.5,2.8,2.8,2.1-1.1-.9-1.4-1.9,3.5-7.6-1.8-9.4c-3.8-1.3-6.4,3.6-5.9,8.9a8,8,0,0,0,5.1,7.1c2.3.8.6,4,3.7,4C101,136,101.3,133.9,100.5,133.6Z"/><path class="minerva-base-style" d="M131.3,33.4c.2.1.3,0,.5-.1l6.5-8.3a.5.5,0,0,0-.2-.6L137,24a.4.4,0,0,0-.5.1L130,32.4c-.2.2-.1.5.2.6Z"/><path class="minerva-base-style" d="M119.2,30l1.1.3a.5.5,0,0,0,.5-.3l3.8-9.4a.4.4,0,0,0-.3-.6l-1.2-.2h-.3l-3.9,9.6A.4.4,0,0,0,119.2,30Z"/><path class="minerva-base-style" d="M105.8,28.7h1.1c.2.1.4-.1.4-.3l1-10a.5.5,0,0,0-.4-.5h-1.1c-.3,0-.4.2-.5.4l-.9,10A.4.4,0,0,0,105.8,28.7Z"/><path class="minerva-base-style" d="M92.8,29.7l1.1-.2c.2,0,.4-.2.3-.4l-1.9-9.9c0-.2-.2-.4-.4-.3H90.7c-.2.1-.4.3-.3.5l1.9,9.9C92.3,29.6,92.5,29.7,92.8,29.7Z"/><path class="minerva-base-style" d="M79.4,32.8l.5.2,1.1-.4a.4.4,0,0,0,.3-.6l-4.6-9a.4.4,0,0,0-.5-.2l-1,.3a.4.4,0,0,0-.3.6Z"/><path class="minerva-base-style" d="M67,38.5c.1.2.3.2.5.1l1-.6a.4.4,0,0,0,.1-.6l-6.7-7.7c-.2-.2-.4-.2-.5-.1l-1,.6c-.3.1-.3.4-.1.6Z"/><path class="minerva-base-style" d="M55.4,46.7c.2.1.4.1.5-.1l.9-.7a.5.5,0,0,0,0-.7l-8.5-5.9h-.5l-.9.8a.5.5,0,0,0,0,.7Z"/><path class="minerva-base-style" d="M45.4,57.1a.4.4,0,0,0,.4-.2l.8-.9c.2-.2.1-.5-.2-.6l-9.8-3.8c-.2-.1-.4-.1-.5.1l-.7.9a.4.4,0,0,0,.2.7Z"/><path class="minerva-base-style" d="M26.8,67.8l10.5,1.5c.2,0,.4-.1.4-.3l.6-1a.4.4,0,0,0-.3-.6L27.5,65.9l-.5.2a5.4,5.4,0,0,1-.5,1.1A.4.4,0,0,0,26.8,67.8Z"/><path class="minerva-base-style" d="M21.1,83.7l10.7-1a.3.3,0,0,0,.3-.3,7.6,7.6,0,0,0,.4-1.1.4.4,0,0,0-.4-.6l-10.8,1-.4.3-.3,1.2C20.6,83.5,20.8,83.8,21.1,83.7Z"/><path class="minerva-base-style" d="M29.2,96.5c0-.4.1-.9.1-1.3s-.2-.5-.5-.4L18.4,98.4c-.2.1-.3.2-.3.4s-.1.8-.1,1.2a.4.4,0,0,0,.6.4l10.3-3.6A.3.3,0,0,0,29.2,96.5Z"/><path class="minerva-base-style" d="M28.9,110.8v-1.3a.5.5,0,0,0-.7-.4l-9.4,6.3c-.2,0-.2.2-.2.4s.1.8.1,1.2a.5.5,0,0,0,.7.3l9.4-6.2C28.9,111,29,110.9,28.9,110.8Z"/><path class="minerva-base-style" d="M31.3,125l-.3-1.3a.4.4,0,0,0-.7-.2L22.6,132c-.1.1-.2.3-.1.4s.3.8.4,1.2a.4.4,0,0,0,.7.2l7.6-8.4C31.3,125.3,31.3,125.2,31.3,125Z"/><path class="minerva-base-style" d="M35.2,137.7,29.8,148c-.1.1,0,.3,0,.4l.7,1.2a.4.4,0,0,0,.7-.1l5.4-10.2c0-.1.1-.2,0-.4l-.6-1.2A.5.5,0,0,0,35.2,137.7Z"/><path class="minerva-base-style" d="M42.9,149.3c-.2-.3-.7-.2-.7.1l-2.9,12c-.1.2,0,.3,0,.4l1,1a.4.4,0,0,0,.7-.1l2.8-11.9c.1-.1,0-.2,0-.3Z"/></g><g transform="translate(366.666 41.434619)"><g transform="translate(0 99.060381)" style="fill: #656767;"><path d="M5.500-62L22.094-62L37.922-17.029L53.656-62L70.328-62L70.328 0L57.594 0L57.594-16.951L58.859-46.213L42.234 0L33.516 0L16.922-46.166L18.203-16.951L18.203 0L5.500 0L5.500-62ZM129.563 0L125.281-12.719L103.031-12.719L98.797 0L85.297 0L108.234-62L120-62L143.063 0L129.563 0ZM114.109-46.339L106.453-23L121.859-23L114.109-46.339ZM168-62L179.547-40.631L191.109-62L205.703-62L187.766-31.259L206.172 0L191.391 0L179.547-21.715L167.703 0L152.938 0L171.344-31.259L153.391-62L168-62ZM237.484-31L237.484-21.141L213.656-21.141L213.656-31L237.484-31ZM281.328-21.703L270.203-21.703L270.203 0L257.500 0L257.500-62L281.531-62Q288.484-62 293.750-59.436Q299.016-56.872 301.852-52.155Q304.688-47.437 304.688-41.410L304.688-41.410Q304.688-32.259 298.484-26.981Q292.281-21.703 281.328-21.703L281.328-21.703ZM270.203-51.719L270.203-32L281.531-32Q286.578-32 289.219-34.415Q291.859-36.830 291.859-41.325L291.859-41.325Q291.859-45.932 289.195-48.786Q286.531-51.639 281.828-51.719L281.828-51.719L270.203-51.719ZM334.203-62L334.203-10.203L361.156-10.203L361.156 0L321.500 0L321.500-62L334.203-62ZM417.563 0L413.281-12.719L391.031-12.719L386.797 0L373.297 0L396.234-62L408-62L431.063 0L417.563 0ZM402.109-46.339L394.453-23L409.859-23L402.109-46.339ZM495.609-62L495.609 0L482.906 0L458.203-40.804L458.203 0L445.500 0L445.500-62L458.203-62L482.953-21.117L482.953-62L495.609-62ZM551.172-20.375L563.875-20.375Q563.156-10.422 556.531-4.711Q549.906 1 539.078 1L539.078 1Q527.219 1 520.430-6.937Q513.641-14.874 513.641-28.728L513.641-28.728L513.641-32.475Q513.641-41.321 516.773-48.054Q519.906-54.786 525.727-58.393Q531.547-62 539.234-62L539.234-62Q549.906-62 556.422-56.281Q562.938-50.563 563.953-40.234L563.953-40.234L551.266-40.234Q550.797-46.203 547.938-48.891Q545.078-51.578 539.234-51.578L539.234-51.578Q532.891-51.578 529.742-47.065Q526.594-42.551 526.500-33.059L526.500-33.059L526.500-28.437Q526.500-18.526 529.531-13.943Q532.563-9.359 539.078-9.359L539.078-9.359Q544.953-9.359 547.852-12.047Q550.750-14.734 551.172-20.375L551.172-20.375ZM615.625 0L599.797-24.875L593.203-17.721L593.203 0L580.500 0L580.500-62L593.203-62L593.203-33.901L598.781-41.606L614.484-62L630.094-62L608.219-34.451L630.734 0L615.625 0ZM660.484-31L660.484-21.141L636.656-21.141L636.656-31L660.484-31ZM693-62L693 0L680.313 0L680.313-62L693-62ZM763.609-62L763.609 0L750.906 0L726.203-40.804L726.203 0L713.500 0L713.500-62L726.203-62L750.953-21.117L750.953-62L763.609-62ZM815.453-15.963L815.453-15.963Q815.453-19.529 812.914-21.436Q810.375-23.344 803.773-25.468Q797.172-27.593 793.313-29.660L793.313-29.660Q782.828-35.289 782.828-44.851L782.828-44.851Q782.828-49.826 785.641-53.721Q788.453-57.615 793.719-59.808Q798.984-62 805.547-62L805.547-62Q812.156-62 817.313-59.613Q822.469-57.227 825.328-52.897Q828.188-48.567 828.188-43.047L828.188-43.047L815.500-43.047Q815.500-47.237 812.828-49.556Q810.156-51.875 805.344-51.875L805.344-51.875Q800.688-51.875 798.102-49.930Q795.516-47.985 795.516-44.820L795.516-44.820Q795.516-41.841 798.547-39.834Q801.578-37.827 807.453-36.052L807.453-36.052Q818.281-32.814 823.234-28.003Q828.188-23.193 828.188-16.032L828.188-16.032Q828.188-8.061 822.141-3.530Q816.094 1 805.844 1L805.844 1Q798.734 1 792.898-1.589Q787.063-4.177 783.992-8.686Q780.922-13.195 780.922-19.119L780.922-19.119L793.656-19.119Q793.656-9.031 805.844-9.031L805.844-9.031Q810.375-9.031 812.914-10.853Q815.453-12.675 815.453-15.963ZM891.875-62L891.875-51.719L873.016-51.719L873.016 0L860.313 0L860.313-51.719L841.688-51.719L841.688-62L891.875-62ZM921-62L921 0L908.313 0L908.313-62L921-62ZM986.875-62L986.875-51.719L968.016-51.719L968.016 0L955.313 0L955.313-51.719L936.688-51.719L936.688-62L986.875-62ZM1036.391-62L1049.141-62L1049.141-21.067Q1049.141-10.869 1042.813-4.934Q1036.484 1 1025.516 1L1025.516 1Q1014.734 1 1008.383-4.761Q1002.031-10.522 1001.906-20.594L1001.906-20.594L1001.906-62L1014.609-62L1014.609-20.918Q1014.609-14.792 1017.508-11.998Q1020.406-9.203 1025.516-9.203L1025.516-9.203Q1036.234-9.203 1036.391-20.571L1036.391-20.571L1036.391-62ZM1114.875-62L1114.875-51.719L1096.016-51.719L1096.016 0L1083.313 0L1083.313-51.719L1064.688-51.719L1064.688-62L1114.875-62Z"/></g><g transform="translate(0 179.070381)" style="fill: #656767;"><path d="M33.219-27L33.219-21.641L12.344-21.641L12.344 0L5.781 0L5.781-50L36.609-50L36.609-44.594L12.344-44.594L12.344-27L33.219-27ZM75.219-50L81.813-50L81.813-15.789Q81.781-8.682 77.391-4.157Q73 0.368 65.469 0.921L65.469 0.921L63.734 1Q55.563 1 50.711-3.462Q45.859-7.924 45.781-15.726L45.781-15.726L45.781-50L52.281-50L52.281-15.888Q52.281-10.432 55.258-7.403Q58.234-4.375 63.734-4.375L63.734-4.375Q69.297-4.375 72.258-7.380Q75.219-10.385 75.219-15.856L75.219-15.856L75.219-50ZM52.453-57.594L52.453-57.594Q52.453-59.141 53.391-60.180Q54.328-61.219 56.180-61.219Q58.031-61.219 58.984-60.180Q59.938-59.141 59.938-57.602Q59.938-56.063 58.984-55.031Q58.031-54 56.180-54Q54.328-54 53.391-55.031Q52.453-56.063 52.453-57.594ZM67.156-57.563L67.156-57.563Q67.156-59.081 68.094-60.134Q69.031-61.188 70.875-61.188Q72.719-61.188 73.680-60.134Q74.641-59.081 74.641-57.555Q74.641-56.029 73.680-55.015Q72.719-54 70.875-54Q69.031-54 68.094-55.015Q67.156-56.029 67.156-57.563ZM124.828 0L114.031-20.625L102.344-20.625L102.344 0L95.750 0L95.750-50L112.219-50Q120.625-50 125.156-46.206Q129.688-42.412 129.688-35.165L129.688-35.165Q129.688-30.551 127.172-27.136Q124.656-23.722 120.188-22.019L120.188-22.019L131.875-0.415L131.875 0L124.828 0ZM102.344-44.594L102.344-26L112.422-26Q117.313-26 120.203-28.496Q123.094-30.991 123.094-35.166L123.094-35.166Q123.094-39.710 120.336-42.137Q117.578-44.563 112.391-44.594L112.391-44.594L102.344-44.594ZM190.828 0L180.031-20.625L168.344-20.625L168.344 0L161.750 0L161.750-50L178.219-50Q186.625-50 191.156-46.206Q195.688-42.412 195.688-35.165L195.688-35.165Q195.688-30.551 193.172-27.136Q190.656-23.722 186.188-22.019L186.188-22.019L197.875-0.415L197.875 0L190.828 0ZM168.344-44.594L168.344-26L178.422-26Q183.313-26 186.203-28.496Q189.094-30.991 189.094-35.166L189.094-35.166Q189.094-39.710 186.336-42.137Q183.578-44.563 178.391-44.594L178.391-44.594L168.344-44.594ZM235.906-29L235.906-23.625L214.344-23.625L214.344-5.359L239.391-5.359L239.391 0L207.781 0L207.781-50L239.047-50L239.047-44.594L214.344-44.594L214.344-29L235.906-29ZM279.781-15.484L286.391-15.484Q285.453-7.578 280.555-3.289Q275.656 1 267.516 1L267.516 1Q258.703 1 253.383-5.311Q248.063-11.621 248.063-22.186L248.063-22.186L248.063-26.954Q248.063-33.873 250.547-39.124Q253.031-44.375 257.570-47.187Q262.109-50 268.094-50L268.094-50Q276.031-50 280.813-45.570Q285.594-41.141 286.391-33.313L286.391-33.313L279.781-33.313Q278.938-39.266 276.078-41.930Q273.219-44.594 268.094-44.594L268.094-44.594Q261.813-44.594 258.242-39.962Q254.672-35.329 254.672-26.781L254.672-26.781L254.672-21.985Q254.672-13.904 258.055-9.140Q261.438-4.375 267.516-4.375L267.516-4.375Q272.984-4.375 275.906-6.852Q278.828-9.328 279.781-15.484L279.781-15.484ZM337.031-50L337.031 0L330.422 0L330.422-22.625L305.344-22.625L305.344 0L298.781 0L298.781-50L305.344-50L305.344-28L330.422-28L330.422-50L337.031-50ZM384.156-50L384.156-44.594L368.172-44.594L368.172 0L361.641 0L361.641-44.594L345.672-44.594L345.672-50L384.156-50ZM408.438-21.812L408.438-21.812Q400-24.227 396.156-27.757Q392.313-31.286 392.313-36.459L392.313-36.459Q392.313-42.334 397.008-46.167Q401.703-50 409.219-50L409.219-50Q414.359-50 418.375-48.016Q422.391-46.031 424.594-42.547Q426.797-39.063 426.797-34.922L426.797-34.922L420.203-34.922Q420.203-39.438 417.328-42.016Q414.453-44.594 409.219-44.594L409.219-44.594Q404.375-44.594 401.656-42.470Q398.938-40.347 398.938-36.567L398.938-36.567Q398.938-33.533 401.516-31.441Q404.094-29.349 410.297-27.614Q416.500-25.880 420.008-23.783Q423.516-21.686 425.203-18.887Q426.891-16.088 426.891-12.300L426.891-12.300Q426.891-6.266 422.180-2.633Q417.469 1 409.563 1L409.563 1Q404.438 1 399.992-0.969Q395.547-2.938 393.141-6.352Q390.734-9.766 390.734-14.109L390.734-14.109L397.328-14.109Q397.328-9.594 400.664-6.984Q404-4.375 409.563-4.375L409.563-4.375Q414.766-4.375 417.531-6.484Q420.297-8.594 420.297-12.236Q420.297-15.879 417.734-17.872Q415.172-19.864 408.438-21.812ZM475.516-24L475.516-6.086Q472.984-2.528 468.461-0.764Q463.938 1 457.922 1L457.922 1Q451.828 1 447.117-1.852Q442.406-4.703 439.820-9.946Q437.234-15.190 437.172-22.108L437.172-22.108L437.172-26.440Q437.172-37.659 442.414-43.830Q447.656-50 457.172-50L457.172-50Q464.953-50 469.703-46.016Q474.453-42.031 475.516-34.719L475.516-34.719L468.953-34.719Q467.109-44.594 457.203-44.594L457.203-44.594Q450.609-44.594 447.203-39.977Q443.797-35.360 443.766-26.610L443.766-26.610L443.766-22.561Q443.766-14.216 447.594-9.295Q451.422-4.375 457.953-4.375L457.953-4.375Q461.641-4.375 464.414-5.169Q467.188-5.964 468.984-7.840L468.984-7.840L468.984-18.672L457.469-18.672L457.469-24L475.516-24ZM516.906-29L516.906-23.625L495.344-23.625L495.344-5.359L520.391-5.359L520.391 0L488.781 0L488.781-50L520.047-50L520.047-44.594L495.344-44.594L495.344-29L516.906-29ZM546.438-21.812L546.438-21.812Q538-24.227 534.156-27.757Q530.313-31.286 530.313-36.459L530.313-36.459Q530.313-42.334 535.008-46.167Q539.703-50 547.219-50L547.219-50Q552.359-50 556.375-48.016Q560.391-46.031 562.594-42.547Q564.797-39.063 564.797-34.922L564.797-34.922L558.203-34.922Q558.203-39.438 555.328-42.016Q552.453-44.594 547.219-44.594L547.219-44.594Q542.375-44.594 539.656-42.470Q536.938-40.347 536.938-36.567L536.938-36.567Q536.938-33.533 539.516-31.441Q542.094-29.349 548.297-27.614Q554.500-25.880 558.008-23.783Q561.516-21.686 563.203-18.887Q564.891-16.088 564.891-12.300L564.891-12.300Q564.891-6.266 560.180-2.633Q555.469 1 547.563 1L547.563 1Q542.438 1 537.992-0.969Q533.547-2.938 531.141-6.352Q528.734-9.766 528.734-14.109L528.734-14.109L535.328-14.109Q535.328-9.594 538.664-6.984Q542-4.375 547.563-4.375L547.563-4.375Q552.766-4.375 555.531-6.484Q558.297-8.594 558.297-12.236Q558.297-15.879 555.734-17.872Q553.172-19.864 546.438-21.812ZM605.781-15.484L612.391-15.484Q611.453-7.578 606.555-3.289Q601.656 1 593.516 1L593.516 1Q584.703 1 579.383-5.311Q574.063-11.621 574.063-22.186L574.063-22.186L574.063-26.954Q574.063-33.873 576.547-39.124Q579.031-44.375 583.570-47.187Q588.109-50 594.094-50L594.094-50Q602.031-50 606.813-45.570Q611.594-41.141 612.391-33.313L612.391-33.313L605.781-33.313Q604.938-39.266 602.078-41.930Q599.219-44.594 594.094-44.594L594.094-44.594Q587.813-44.594 584.242-39.962Q580.672-35.329 580.672-26.781L580.672-26.781L580.672-21.985Q580.672-13.904 584.055-9.140Q587.438-4.375 593.516-4.375L593.516-4.375Q598.984-4.375 601.906-6.852Q604.828-9.328 605.781-15.484L605.781-15.484ZM662.031-50L662.031 0L655.422 0L655.422-22.625L630.344-22.625L630.344 0L623.781 0L623.781-50L630.344-50L630.344-28L655.422-28L655.422-50L662.031-50ZM683.813-50L683.813 0L677.250 0L677.250-50L683.813-50ZM728.781-15.484L735.391-15.484Q734.453-7.578 729.555-3.289Q724.656 1 716.516 1L716.516 1Q707.703 1 702.383-5.311Q697.063-11.621 697.063-22.186L697.063-22.186L697.063-26.954Q697.063-33.873 699.547-39.124Q702.031-44.375 706.570-47.187Q711.109-50 717.094-50L717.094-50Q725.031-50 729.813-45.570Q734.594-41.141 735.391-33.313L735.391-33.313L728.781-33.313Q727.938-39.266 725.078-41.930Q722.219-44.594 717.094-44.594L717.094-44.594Q710.813-44.594 707.242-39.962Q703.672-35.329 703.672-26.781L703.672-26.781L703.672-21.985Q703.672-13.904 707.055-9.140Q710.438-4.375 716.516-4.375L716.516-4.375Q721.984-4.375 724.906-6.852Q727.828-9.328 728.781-15.484L728.781-15.484ZM785.031-50L785.031 0L778.422 0L778.422-22.625L753.344-22.625L753.344 0L746.781 0L746.781-50L753.344-50L753.344-28L778.422-28L778.422-50L785.031-50ZM833.156-50L833.156-44.594L817.172-44.594L817.172 0L810.641 0L810.641-44.594L794.672-44.594L794.672-50L833.156-50ZM871.906-29L871.906-23.625L850.344-23.625L850.344-5.359L875.391-5.359L875.391 0L843.781 0L843.781-50L875.047-50L875.047-44.594L850.344-44.594L850.344-29L871.906-29ZM934.219-50L940.813-50L940.813-15.789Q940.781-8.682 936.391-4.157Q932 0.368 924.469 0.921L924.469 0.921L922.734 1Q914.563 1 909.711-3.462Q904.859-7.924 904.781-15.726L904.781-15.726L904.781-50L911.281-50L911.281-15.888Q911.281-10.432 914.258-7.403Q917.234-4.375 922.734-4.375L922.734-4.375Q928.297-4.375 931.258-7.380Q934.219-10.385 934.219-15.856L934.219-15.856L934.219-50ZM992.031-50L992.031 0L985.422 0L960.375-38.524L960.375 0L953.781 0L953.781-50L960.375-50L985.500-11.303L985.500-50L992.031-50ZM1020.547 0L1006.781 0L1006.781-50L1020.828-50Q1027.313-50 1032.305-47.119Q1037.297-44.239 1040.016-38.909Q1042.734-33.579 1042.766-26.688L1042.766-26.688L1042.766-23.485Q1042.766-16.421 1040.047-11.099Q1037.328-5.777 1032.289-2.920Q1027.250-0.063 1020.547 0L1020.547 0ZM1021-44.594L1013.344-44.594L1013.344-5.359L1020.250-5.359Q1027.828-5.359 1032.055-10.106Q1036.281-14.854 1036.281-23.625L1036.281-23.625L1036.281-26.548Q1036.281-35.068 1032.297-39.799Q1028.313-44.531 1021-44.594L1021-44.594ZM1104.828 0L1094.031-20.625L1082.344-20.625L1082.344 0L1075.750 0L1075.750-50L1092.219-50Q1100.625-50 1105.156-46.206Q1109.688-42.412 1109.688-35.165L1109.688-35.165Q1109.688-30.551 1107.172-27.136Q1104.656-23.722 1100.188-22.019L1100.188-22.019L1111.875-0.415L1111.875 0L1104.828 0ZM1082.344-44.594L1082.344-26L1092.422-26Q1097.313-26 1100.203-28.496Q1103.094-30.991 1103.094-35.166L1103.094-35.166Q1103.094-39.710 1100.336-42.137Q1097.578-44.563 1092.391-44.594L1092.391-44.594L1082.344-44.594ZM1149.906-29L1149.906-23.625L1128.344-23.625L1128.344-5.359L1153.391-5.359L1153.391 0L1121.781 0L1121.781-50L1153.047-50L1153.047-44.594L1128.344-44.594L1128.344-29L1149.906-29ZM1193.781-15.484L1200.391-15.484Q1199.453-7.578 1194.555-3.289Q1189.656 1 1181.516 1L1181.516 1Q1172.703 1 1167.383-5.311Q1162.063-11.621 1162.063-22.186L1162.063-22.186L1162.063-26.954Q1162.063-33.873 1164.547-39.124Q1167.031-44.375 1171.570-47.187Q1176.109-50 1182.094-50L1182.094-50Q1190.031-50 1194.813-45.570Q1199.594-41.141 1200.391-33.313L1200.391-33.313L1193.781-33.313Q1192.938-39.266 1190.078-41.930Q1187.219-44.594 1182.094-44.594L1182.094-44.594Q1175.813-44.594 1172.242-39.962Q1168.672-35.329 1168.672-26.781L1168.672-26.781L1168.672-21.985Q1168.672-13.904 1172.055-9.140Q1175.438-4.375 1181.516-4.375L1181.516-4.375Q1186.984-4.375 1189.906-6.852Q1192.828-9.328 1193.781-15.484L1193.781-15.484ZM1251.031-50L1251.031 0L1244.422 0L1244.422-22.625L1219.344-22.625L1219.344 0L1212.781 0L1212.781-50L1219.344-50L1219.344-28L1244.422-28L1244.422-50L1251.031-50ZM1299.156-50L1299.156-44.594L1283.172-44.594L1283.172 0L1276.641 0L1276.641-44.594L1260.672-44.594L1260.672-50L1299.156-50ZM1323.438-21.812L1323.438-21.812Q1315-24.227 1311.156-27.757Q1307.313-31.286 1307.313-36.459L1307.313-36.459Q1307.313-42.334 1312.008-46.167Q1316.703-50 1324.219-50L1324.219-50Q1329.359-50 1333.375-48.016Q1337.391-46.031 1339.594-42.547Q1341.797-39.063 1341.797-34.922L1341.797-34.922L1335.203-34.922Q1335.203-39.438 1332.328-42.016Q1329.453-44.594 1324.219-44.594L1324.219-44.594Q1319.375-44.594 1316.656-42.470Q1313.938-40.347 1313.938-36.567L1313.938-36.567Q1313.938-33.533 1316.516-31.441Q1319.094-29.349 1325.297-27.614Q1331.500-25.880 1335.008-23.783Q1338.516-21.686 1340.203-18.887Q1341.891-16.088 1341.891-12.300L1341.891-12.300Q1341.891-6.266 1337.180-2.633Q1332.469 1 1324.563 1L1324.563 1Q1319.438 1 1314.992-0.969Q1310.547-2.938 1308.141-6.352Q1305.734-9.766 1305.734-14.109L1305.734-14.109L1312.328-14.109Q1312.328-9.594 1315.664-6.984Q1319-4.375 1324.563-4.375L1324.563-4.375Q1329.766-4.375 1332.531-6.484Q1335.297-8.594 1335.297-12.236Q1335.297-15.879 1332.734-17.872Q1330.172-19.864 1323.438-21.812ZM1387.156-50L1387.156-44.594L1371.172-44.594L1371.172 0L1364.641 0L1364.641-44.594L1348.672-44.594L1348.672-50L1387.156-50ZM1435.031-50L1435.031 0L1428.422 0L1428.422-22.625L1403.344-22.625L1403.344 0L1396.781 0L1396.781-50L1403.344-50L1403.344-28L1428.422-28L1428.422-50L1435.031-50ZM1477.906-29L1477.906-23.625L1456.344-23.625L1456.344-5.359L1481.391-5.359L1481.391 0L1449.781 0L1449.781-50L1481.047-50L1481.047-44.594L1456.344-44.594L1456.344-29L1477.906-29ZM1531.063-26.035L1531.063-22.903Q1531.063-15.610 1528.602-10.172Q1526.141-4.734 1521.625-1.867Q1517.109 1 1511.094 1L1511.094 1Q1505.219 1 1500.672-1.883Q1496.125-4.765 1493.617-10.102Q1491.109-15.439 1491.031-22.451L1491.031-22.451L1491.031-26.035Q1491.031-33.187 1493.531-38.680Q1496.031-44.172 1500.594-47.086Q1505.156-50 1511.031-50L1511.031-50Q1517.016-50 1521.578-47.117Q1526.141-44.235 1528.602-38.765Q1531.063-33.296 1531.063-26.035L1531.063-26.035ZM1524.531-22.421L1524.531-26.096Q1524.531-34.924 1520.977-39.642Q1517.422-44.359 1511.031-44.359L1511.031-44.359Q1504.813-44.359 1501.242-39.642Q1497.672-34.924 1497.563-26.547L1497.563-26.547L1497.563-22.904Q1497.563-14.356 1501.172-9.467Q1504.781-4.578 1511.094-4.578L1511.094-4.578Q1517.453-4.578 1520.938-9.195Q1524.422-13.811 1524.531-22.421L1524.531-22.421ZM1572.828 0L1562.031-20.625L1550.344-20.625L1550.344 0L1543.750 0L1543.750-50L1560.219-50Q1568.625-50 1573.156-46.206Q1577.688-42.412 1577.688-35.165L1577.688-35.165Q1577.688-30.551 1575.172-27.136Q1572.656-23.722 1568.188-22.019L1568.188-22.019L1579.875-0.415L1579.875 0L1572.828 0ZM1550.344-44.594L1550.344-26L1560.422-26Q1565.313-26 1568.203-28.496Q1571.094-30.991 1571.094-35.166L1571.094-35.166Q1571.094-39.710 1568.336-42.137Q1565.578-44.563 1560.391-44.594L1560.391-44.594L1550.344-44.594ZM1596.813-50L1596.813 0L1590.250 0L1590.250-50L1596.813-50ZM1638.906-29L1638.906-23.625L1617.344-23.625L1617.344-5.359L1642.391-5.359L1642.391 0L1610.781 0L1610.781-50L1642.047-50L1642.047-44.594L1617.344-44.594L1617.344-29L1638.906-29Z"/></g></g></svg>